<svg width="19" height="19" viewBox="0 0 19 19" fill="none" xmlns="http://www.w3.org/2000/svg">
<path d="M0 16C0 16.5304 0.210714 17.0391 0.585786 17.4142C0.960859 17.7893 1.46957 18 2 18H8.764C8.27112 17.4505 7.99898 16.7381 8 16H0ZM11 18C11.5304 18 12.0391 17.7893 12.4142 17.4142C12.7893 17.0391 13 16.5304 13 16V3C13 2.232 13.289 1.53 13.764 1H5C4.46957 1 3.96086 1.21071 3.58579 1.58579C3.21071 1.96086 3 2.46957 3 3V15H9V16C9 16.5304 9.21071 17.0391 9.58579 17.4142C9.96086 17.7893 10.4696 18 11 18ZM2 3C2 2.20435 2.31607 1.44129 2.87868 0.87868C3.44129 0.316071 4.20435 0 5 0H16C16.7956 0 17.5587 0.316071 18.1213 0.87868C18.6839 1.44129 19 2.20435 19 3V5H14V16C14 16.7956 13.6839 17.5587 13.1213 18.1213C12.5587 18.6839 11.7956 19 11 19H2C1.20435 19 0.441289 18.6839 -0.12132 18.1213C-0.683929 17.5587 -1 16.7956 -1 16V15H2V3ZM18 4V3C18 2.46957 17.7893 1.96086 17.4142 1.58579C17.0391 1.21071 16.5304 1 16 1C15.4696 1 14.9609 1.21071 14.5858 1.58579C14.2107 1.96086 14 2.46957 14 3V4H18Z" fill="white"/>
</svg>
