
<svg width="19" height="17" viewBox="0 0 19 17" fill="none" xmlns="http://www.w3.org/2000/svg">
<path d="M14 8C13.2044 8 12.4413 7.68393 11.8787 7.12132C11.3161 6.55871 11 5.79565 11 5V1H3C2.46957 1 1.96086 1.21071 1.58579 1.58579C1.21071 1.96086 1 2.46957 1 3V14C1 14.5304 1.21071 15.0391 1.58579 15.4142C1.96086 15.7893 2.46957 16 3 16H16C16.5304 16 17.0391 15.7893 17.4142 15.4142C17.7893 15.0391 18 14.5304 18 14V8H14ZM12 5C12 5.53043 12.2107 6.03914 12.5858 6.41421C12.9609 6.78929 13.4696 7 14 7H17.586L12 1.414V5ZM3 0H12L19 7V14C19 14.7956 18.6839 15.5587 18.1213 16.1213C17.5587 16.6839 16.7956 17 16 17H3C2.20435 17 1.44129 16.6839 0.87868 16.1213C0.316071 15.5587 0 14.7956 0 14V3C0 2.20435 0.316071 1.44129 0.87868 0.87868C1.44129 0.316071 2.20435 0 3 0ZM5 14V12H3V11H5V9H6V11H8V12H6V14H5Z" fill="#373A36"/>
</svg>