<svg width="24" height="16" viewBox="0 0 24 16" fill="none" xmlns="http://www.w3.org/2000/svg">
<path d="M5.72923 15.8334C4.20976 15.8336 2.75242 15.2303 1.67779 14.1561C0.603172 13.0818 -0.000700201 11.6247 -0.000976468 10.1052C-0.00125273 8.58576 0.602089 7.12841 1.67632 6.05379C2.75055 4.97917 4.20768 4.37529 5.72715 4.37502C6.31375 2.96957 7.35692 1.80283 8.68822 1.06321C10.0195 0.323582 11.5612 0.0542321 13.0645 0.298648C14.5677 0.543064 15.9446 1.28698 16.973 2.41028C18.0014 3.53358 18.6212 4.9707 18.7324 6.4896L19.2709 6.45835C20.5141 6.45835 21.7064 6.95221 22.5855 7.83129C23.4645 8.71037 23.9584 9.90265 23.9584 11.1459C23.9584 12.3891 23.4645 13.5813 22.5855 14.4604C21.7064 15.3395 20.5141 15.8334 19.2709 15.8334H5.72923ZM5.72923 5.41669C4.48603 5.41669 3.29374 5.91055 2.41467 6.78962C1.53559 7.6687 1.04173 8.86098 1.04173 10.1042C1.04173 11.3474 1.53559 12.5397 2.41467 13.4187C3.29374 14.2978 4.48603 14.7917 5.72923 14.7917H19.2709C19.8208 14.7913 20.3635 14.6664 20.8584 14.4265C21.3532 14.1866 21.7874 13.8379 22.1284 13.4065C22.4694 12.975 22.7083 12.472 22.8274 11.9351C22.9464 11.3983 22.9425 10.8414 22.8159 10.3063C22.6892 9.7711 22.4431 9.27154 22.0961 8.84496C21.749 8.41838 21.31 8.07584 20.8118 7.84299C20.3136 7.61013 19.7692 7.49299 19.2193 7.50035C18.6694 7.5077 18.1283 7.63935 17.6365 7.88544L17.7084 6.97919C17.71 5.59024 17.207 4.248 16.293 3.20219C15.379 2.15639 14.1161 1.47824 12.7395 1.29393C11.3628 1.10962 9.96608 1.4317 8.80914 2.20024C7.6522 2.96877 6.81385 4.13144 6.45006 5.47189L5.72923 5.41669ZM12.5001 5.41669V10.8854L14.8438 8.54169L15.6251 9.23335L11.9792 12.8792L8.3334 9.23335L9.11465 8.54169L11.4584 10.8854V5.41669H12.5001Z" fill="#373A36"/>
</svg>
