<svg width="17" height="21" viewBox="0 0 17 21" fill="none" xmlns="http://www.w3.org/2000/svg">
<path d="M12 8C11.2044 8 10.4413 7.68393 9.87868 7.12132C9.31607 6.55871 9 5.79565 9 5V1H5C4.46957 1 3.96086 1.21071 3.58579 1.58579C3.21071 1.96086 3 2.46957 3 3V16C3 16.5304 3.21071 17.0391 3.58579 17.4142C3.96086 17.7893 4.46957 18 5 18H14C14.5304 18 15.0391 17.7893 15.4142 17.4142C15.7893 17.0391 16 16.5304 16 16V8H12ZM10 5C10 5.53043 10.2107 6.03914 10.5858 6.41421C10.9609 6.78929 11.4696 7 12 7H15.586L10 1.414V5ZM5 0H10L17 7V16C17 16.7956 16.6839 17.5587 16.1213 18.1213C15.5587 18.6839 14.7956 19 14 19H5C4.20435 19 3.44129 18.6839 2.87868 18.1213C2.31607 17.5587 2 16.7956 2 16V3C2 2.20435 2.31607 1.44129 2.87868 0.87868C3.44129 0.316071 4.20435 0 5 0ZM5 21C3.67392 21 2.40215 20.4732 1.46447 19.5355C0.526784 18.5979 0 17.3261 0 16V4H1V16C1 17.0609 1.42143 18.0783 2.17157 18.8284C2.92172 19.5786 3.93913 20 5 20H13V21H5Z" fill="#373A36"/>
</svg>
