<svg width="17" height="18" viewBox="0 0 17 18" fill="none" xmlns="http://www.w3.org/2000/svg">
  <path d="M16.706 5.042L14.374 7.374L10.624 3.624L12.956 1.292C13.0488 1.19905 13.159 1.12531 13.2803 1.075C13.4016 1.02469 13.5317 0.998795 13.663 0.998795C13.7944 0.998795 13.9244 1.02469 14.0457 1.075C14.167 1.12531 14.2772 1.19905 14.37 1.292L16.706 3.628C16.799 3.72078 16.8727 3.83099 16.923 3.9523C16.9733 4.07362 16.9992 4.20366 16.9992 4.335C16.9992 4.46633 16.9733 4.59637 16.923 4.71769C16.8727 4.839 16.799 4.94921 16.706 5.042ZM-0.000976562 14.248L10.064 4.184L13.814 7.934L3.74902 17.998H2.3365e-05V14.248H-0.000976562ZM13.621 2.044L12.081 3.583L14.418 5.918L15.956 4.379L13.621 2.044ZM12.357 7.979L10.022 5.643L1.00002 14.664V17H3.33602L12.357 7.979Z" fill="#373A36"/>
</svg>
