<svg width="19" height="19" viewBox="0 0 19 19" fill="none" xmlns="http://www.w3.org/2000/svg">
<path d="M0.792969 1.457L1.49997 0.75L18.25 17.5L17.543 18.207L15.336 16H0.999969L3.99997 13V7.5C3.99997 6.67 4.18397 5.883 4.51297 5.177L0.792969 1.457ZM9.99997 1.5C9.99997 1.36739 9.94729 1.24021 9.85352 1.14645C9.75975 1.05268 9.63258 1 9.49997 1C9.36736 1 9.24018 1.05268 9.14641 1.14645C9.05265 1.24021 8.99997 1.36739 8.99997 1.5V3.027C8.02459 3.13513 7.11159 3.56019 6.40097 4.237L5.69397 3.53C6.34273 2.90687 7.13458 2.45256 7.99997 2.207V1.5C7.99997 1.10218 8.158 0.720644 8.43931 0.43934C8.72061 0.158035 9.10214 0 9.49997 0C9.89779 0 10.2793 0.158035 10.5606 0.43934C10.8419 0.720644 11 1.10218 11 1.5V2.207C13.309 2.86 15 4.982 15 7.5V12.836L14 11.836V7.5C14.0002 6.39295 13.5923 5.32467 12.8544 4.49946C12.1164 3.67424 11.1002 3.15001 9.99997 3.027V1.5ZM4.99997 7.5V13.414L3.41397 15H14.336L5.27697 5.941C5.09301 6.44015 4.99922 6.96803 4.99997 7.5ZM9.49997 19C8.92364 19.0001 8.36497 18.8011 7.91852 18.4367C7.47206 18.0722 7.16523 17.5647 7.04997 17H8.08497C8.18804 17.293 8.37952 17.5468 8.63298 17.7263C8.88644 17.9058 9.18937 18.0022 9.49997 18.0022C9.81056 18.0022 10.1135 17.9058 10.367 17.7263C10.6204 17.5468 10.8119 17.293 10.915 17H11.95C11.8347 17.5647 11.5279 18.0722 11.0814 18.4367C10.635 18.8011 10.0763 19.0001 9.49997 19Z" fill="white"/>
</svg>
