<svg width="18" height="21" viewBox="0 0 18 21" fill="none" xmlns="http://www.w3.org/2000/svg">
<path d="M7 4H15C15.7956 4 16.5587 4.31607 17.1213 4.87868C17.6839 5.44129 18 6.20435 18 7V18C18 18.7956 17.6839 19.5587 17.1213 20.1213C16.5587 20.6839 15.7956 21 15 21H7C6.20435 21 5.44129 20.6839 4.87868 20.1213C4.31607 19.5587 4 18.7956 4 18V17H5V18C5 18.5304 5.21071 19.0391 5.58579 19.4142C5.96086 19.7893 6.46957 20 7 20H15C15.5304 20 16.0391 19.7893 16.4142 19.4142C16.7893 19.0391 17 18.5304 17 18V7C17 6.46957 16.7893 5.96086 16.4142 5.58579C16.0391 5.21071 15.5304 5 15 5H7C6.46957 5 5.96086 5.21071 5.58579 5.58579C5.21071 5.96086 5 6.46957 5 7V12H4V7C4 6.20435 4.31607 5.44129 4.87868 4.87868C5.44129 4.31607 6.20435 4 7 4ZM3 0H13V1H3C2.46957 1 1.96086 1.21071 1.58579 1.58579C1.21071 1.96086 1 2.46957 1 3V12C1 12.5304 1.21071 13.0391 1.58579 13.4142C1.96086 13.7893 2.46957 14 3 14H10.25L8 11.75L8.664 11L12.164 14.5L8.664 18L8 17.25L10.25 15H3C2.20435 15 1.44129 14.6839 0.87868 14.1213C0.316071 13.5587 0 12.7956 0 12V3C0 2.20435 0.316071 1.44129 0.87868 0.87868C1.44129 0.316071 2.20435 0 3 0Z" fill="#373A36"/>
</svg>