<svg width="20" height="18" viewBox="0 0 20 18" fill="none" xmlns="http://www.w3.org/2000/svg">
<path d="M3.2085 0.166656H16.7502C17.579 0.166656 18.3738 0.495897 18.9599 1.08195C19.5459 1.668 19.8752 2.46285 19.8752 3.29166V14.75C19.8752 15.5788 19.5459 16.3736 18.9599 16.9597C18.3738 17.5457 17.579 17.875 16.7502 17.875H3.2085C2.37969 17.875 1.58484 17.5457 0.998787 16.9597C0.412736 16.3736 0.0834961 15.5788 0.0834961 14.75V3.29166C0.0834961 2.46285 0.412736 1.668 0.998787 1.08195C1.58484 0.495897 2.37969 0.166656 3.2085 0.166656ZM3.2085 1.20832C2.65596 1.20832 2.12606 1.42782 1.73536 1.81852C1.34466 2.20922 1.12516 2.73912 1.12516 3.29166V14.75C1.12516 15.3025 1.34466 15.8324 1.73536 16.2231C2.12606 16.6138 2.65596 16.8333 3.2085 16.8333H16.7502C17.3027 16.8333 17.8326 16.6138 18.2233 16.2231C18.614 15.8324 18.8335 15.3025 18.8335 14.75V3.29166C18.8335 2.73912 18.614 2.20922 18.2233 1.81852C17.8326 1.42782 17.3027 1.20832 16.7502 1.20832H3.2085ZM8.41683 4.33332H15.7085V11.625H14.6668V6.11145L7.22308 13.5552L6.48558 12.8187L13.9304 5.37499H8.41683V4.33332Z" fill="#373A36"/>
</svg>
