<svg width="15" height="16" viewBox="0 0 15 16" fill="none" xmlns="http://www.w3.org/2000/svg">
<path d="M2 16V15H3V16H2ZM9 4C9.78793 4 10.5681 4.1552 11.2961 4.45673C12.0241 4.75826 12.6855 5.20021 13.2426 5.75736C13.7998 6.31451 14.2417 6.97595 14.5433 7.7039C14.8448 8.43186 15 9.21207 15 10C15 10.7879 14.8448 11.5682 14.5433 12.2961C14.2417 13.0241 13.7998 13.6855 13.2426 14.2426C12.6855 14.7998 12.0241 15.2418 11.2961 15.5433C10.5681 15.8448 9.78793 16 9 16H5V15H9C10.3261 15 11.5979 14.4732 12.5355 13.5355C13.4732 12.5979 14 11.3261 14 10C14 8.67392 13.4732 7.40215 12.5355 6.46447C11.5979 5.52679 10.3261 5 9 5H1.914L4.95 8.036L4.243 8.743L0 4.5L4.243 0.257004L4.95 0.964004L1.914 4H9Z" fill="#373A36"/>
</svg>
