<svg width="19" height="20" viewBox="0 0 19 20" fill="none" xmlns="http://www.w3.org/2000/svg">
<path d="M17.5878 13.492L15.7738 12.202C16.0784 11.0818 16.0767 9.9003 15.7688 8.78099L17.5888 7.50699L16.1358 4.99299L14.1118 5.91899C13.2937 5.09501 12.2694 4.50583 11.1458 4.21299L10.9528 1.99999H8.04679L7.85379 4.21299C6.73044 4.50623 5.70644 5.09576 4.88879 5.91999L2.86379 4.99399L1.41179 7.50799L3.23179 8.78199C2.92371 9.9009 2.92164 11.082 3.22579 12.202L1.41179 13.492L2.86379 15.994L4.88879 15.067C5.70656 15.8908 6.73054 16.48 7.85379 16.773L8.04679 18.986H10.9528L11.1458 16.773C12.269 16.48 13.293 15.8908 14.1108 15.067L16.1358 15.994L17.5888 13.493L17.5878 13.492ZM11.5048 0.984986C11.6335 0.984849 11.7573 1.03436 11.8505 1.12321C11.9436 1.21206 11.9989 1.3334 12.0048 1.46199L12.1828 3.49699C12.922 3.77869 13.6116 4.17634 14.2258 4.67499L16.0758 3.81199C16.19 3.7532 16.3226 3.74065 16.4458 3.77696C16.5691 3.81327 16.6736 3.89564 16.7378 4.00699L18.7428 7.47699C18.8072 7.58821 18.8263 7.71998 18.7962 7.84493C18.766 7.96987 18.6889 8.0784 18.5808 8.14799L16.9068 9.31999C17.0348 10.118 17.0308 10.913 16.9078 11.679L18.5808 12.849C18.6891 12.9186 18.7664 13.0273 18.7966 13.1525C18.8268 13.2777 18.8075 13.4097 18.7428 13.521L16.7378 16.978C16.6736 17.0893 16.5691 17.1717 16.4458 17.208C16.3226 17.2443 16.19 17.2318 16.0758 17.173L14.2258 16.31C13.6238 16.8 12.9378 17.2 12.1828 17.489L12.0048 19.524C11.9986 19.6524 11.9432 19.7735 11.8501 19.8621C11.757 19.9508 11.6333 20.0001 11.5048 20H7.49479C7.36623 20.0001 7.24256 19.9508 7.14946 19.8621C7.05635 19.7735 7.00096 19.6524 6.99479 19.524L6.81679 17.489C6.07752 17.2069 5.38789 16.8089 4.77379 16.31L2.92379 17.173C2.80954 17.2322 2.67688 17.245 2.5534 17.2089C2.42991 17.1728 2.32511 17.0904 2.26079 16.979L0.256787 13.52C0.192365 13.4088 0.173253 13.277 0.203419 13.152C0.233585 13.0271 0.310712 12.9186 0.418787 12.849L2.09179 11.678C1.9665 10.8966 1.9665 10.1003 2.09179 9.31899L0.419787 8.14799C0.311977 8.07842 0.235034 7.97007 0.20488 7.84536C0.174726 7.72065 0.193668 7.58912 0.257787 7.47799L2.25979 4.00699C2.32395 3.89538 2.42868 3.81283 2.55218 3.77651C2.67567 3.74018 2.80842 3.75289 2.92279 3.81199L4.77279 4.67499C5.38692 4.17634 6.07656 3.77869 6.81579 3.49699L6.99379 1.46199C6.99971 1.3334 7.05499 1.21206 7.14812 1.12321C7.24126 1.03436 7.36507 0.984849 7.49379 0.984986H11.5038H11.5048ZM9.49979 6.99999C10.428 6.99999 11.3183 7.36873 11.9747 8.02511C12.631 8.68149 12.9998 9.57173 12.9998 10.5C12.9998 11.4282 12.631 12.3185 11.9747 12.9749C11.3183 13.6312 10.428 14 9.49979 14C8.57153 14 7.68129 13.6312 7.02491 12.9749C6.36854 12.3185 5.99979 11.4282 5.99979 10.5C5.99979 9.57173 6.36854 8.68149 7.02491 8.02511C7.68129 7.36873 8.57153 6.99999 9.49979 6.99999ZM9.49979 7.99999C8.83675 7.99999 8.20086 8.26338 7.73202 8.73222C7.26318 9.20106 6.99979 9.83694 6.99979 10.5C6.99979 11.163 7.26318 11.7989 7.73202 12.2678C8.20086 12.7366 8.83675 13 9.49979 13C10.1628 13 10.7987 12.7366 11.2676 12.2678C11.7364 11.7989 11.9998 11.163 11.9998 10.5C11.9998 9.83694 11.7364 9.20106 11.2676 8.73222C10.7987 8.26338 10.1628 7.99999 9.49979 7.99999Z" fill="white"/>
</svg>
